<?xml version="1.0" encoding="UTF-8"?>
<!DOCTYPE svg PUBLIC "-//W3C//DTD SVG 1.1//EN" "http://www.w3.org/Graphics/SVG/1.1/DTD/svg11.dtd">
<svg xmlns="http://www.w3.org/2000/svg" version="1.1" width="56px" height="62px" style="shape-rendering:geometricPrecision; text-rendering:geometricPrecision; image-rendering:optimizeQuality; fill-rule:evenodd; clip-rule:evenodd" xmlns:xlink="http://www.w3.org/1999/xlink">
<g><path style="opacity:1" fill="#225be5" d="M -0.5,-0.5 C 6.83333,-0.5 14.1667,-0.5 21.5,-0.5C 21.5,0.833333 21.5,2.16667 21.5,3.5C 22.8333,3.5 24.1667,3.5 25.5,3.5C 26.4245,7.37276 28.7578,8.37276 32.5,6.5C 35.7787,6.74719 36.7787,8.24719 35.5,11C 34.5,11.1667 33.5,11.3333 32.5,11.5C 29.7254,10.0772 26.7254,9.41052 23.5,9.5C 24.8333,11.8333 24.8333,14.1667 23.5,16.5C 22.5,16.5 21.5,16.5 20.5,16.5C 20.0332,18.711 19.0332,20.711 17.5,22.5C 15.7859,21.3915 15.1192,22.0582 15.5,24.5C 14.209,24.2627 13.209,24.596 12.5,25.5C 10.5289,34.1045 9.86227,43.1045 10.5,52.5C 9.5,52.5 8.5,52.5 7.5,52.5C 8.21139,48.7193 7.04473,45.7193 4,43.5C 3.41798,37.7557 2.41798,32.089 1,26.5C 0.76791,27.7375 0.26791,28.7375 -0.5,29.5C -0.5,19.5 -0.5,9.5 -0.5,-0.5 Z"/></g>
<g><path style="opacity:1" fill="#2457dc" d="M 21.5,-0.5 C 30.1667,-0.5 38.8333,-0.5 47.5,-0.5C 47.5,4.83333 47.5,10.1667 47.5,15.5C 48.675,15.281 49.675,15.6143 50.5,16.5C 48.1946,18.5806 45.6946,18.9139 43,17.5C 41.6244,17.6842 40.7911,18.3509 40.5,19.5C 39.8333,19.1667 39.1667,18.8333 38.5,18.5C 33.9731,14.2454 28.9731,13.5787 23.5,16.5C 24.8333,14.1667 24.8333,11.8333 23.5,9.5C 26.7254,9.41052 29.7254,10.0772 32.5,11.5C 33.5,11.3333 34.5,11.1667 35.5,11C 36.7787,8.24719 35.7787,6.74719 32.5,6.5C 28.7578,8.37276 26.4245,7.37276 25.5,3.5C 24.1667,3.5 22.8333,3.5 21.5,3.5C 21.5,2.16667 21.5,0.833333 21.5,-0.5 Z"/></g>
<g><path style="opacity:1" fill="#1c53dc" d="M 47.5,-0.5 C 50.1667,-0.5 52.8333,-0.5 55.5,-0.5C 55.5,20.1667 55.5,40.8333 55.5,61.5C 39.8333,61.5 24.1667,61.5 8.5,61.5C 6.81408,58.4633 7.81408,57.13 11.5,57.5C 11.5,56.5 11.5,55.5 11.5,54.5C 12.5,54.5 13.5,54.5 14.5,54.5C 15.1667,54.5 15.5,54.8333 15.5,55.5C 24.3238,56.6573 33.3238,56.824 42.5,56C 43.7375,55.7679 44.7375,55.2679 45.5,54.5C 46.8062,53.5326 47.4729,52.1993 47.5,50.5C 47.5,49.8333 47.5,49.1667 47.5,48.5C 48.1174,48.3893 48.6174,48.056 49,47.5C 49.6667,41.1667 49.6667,34.8333 49,28.5C 48.7216,27.5842 48.2216,26.9175 47.5,26.5C 47.5,25.8333 47.1667,25.5 46.5,25.5C 44.8984,23.9261 42.8984,23.2594 40.5,23.5C 40.5,22.1667 40.5,20.8333 40.5,19.5C 40.7911,18.3509 41.6244,17.6842 43,17.5C 45.6946,18.9139 48.1946,18.5806 50.5,16.5C 49.675,15.6143 48.675,15.281 47.5,15.5C 47.5,10.1667 47.5,4.83333 47.5,-0.5 Z"/></g>
<g><path style="opacity:1" fill="#daeafb" d="M 38.5,18.5 C 39.0147,20.8945 39.6814,23.2278 40.5,25.5C 39.4721,25.9258 38.1388,25.9258 36.5,25.5C 36.7678,23.901 36.4345,22.5676 35.5,21.5C 35.573,19.9731 34.9063,18.9731 33.5,18.5C 26.9651,16.0173 23.6318,18.3506 23.5,25.5C 22.0387,26.6857 20.7054,26.6857 19.5,25.5C 20.0846,22.1517 21.418,19.1517 23.5,16.5C 28.9731,13.5787 33.9731,14.2454 38.5,18.5 Z"/></g>
<g><path style="opacity:1" fill="#3e63ad" d="M 33.5,18.5 C 28.2908,17.3961 25.2908,19.3961 24.5,24.5C 28.1667,24.5 31.8333,24.5 35.5,24.5C 35.5,23.5 35.5,22.5 35.5,21.5C 36.4345,22.5676 36.7678,23.901 36.5,25.5C 32.1667,25.5 27.8333,25.5 23.5,25.5C 23.6318,18.3506 26.9651,16.0173 33.5,18.5 Z"/></g>
<g><path style="opacity:1" fill="#3b5ec8" d="M 23.5,16.5 C 21.418,19.1517 20.0846,22.1517 19.5,25.5C 17.1667,25.5 14.8333,25.5 12.5,25.5C 13.209,24.596 14.209,24.2627 15.5,24.5C 15.1192,22.0582 15.7859,21.3915 17.5,22.5C 19.0332,20.711 20.0332,18.711 20.5,16.5C 21.5,16.5 22.5,16.5 23.5,16.5 Z"/></g>
<g><path style="opacity:1" fill="#1f5ad4" d="M 33.5,18.5 C 34.9063,18.9731 35.573,19.9731 35.5,21.5C 35.5,22.5 35.5,23.5 35.5,24.5C 31.8333,24.5 28.1667,24.5 24.5,24.5C 25.2908,19.3961 28.2908,17.3961 33.5,18.5 Z"/></g>
<g><path style="opacity:1" fill="#3d59bc" d="M 38.5,18.5 C 39.1667,18.8333 39.8333,19.1667 40.5,19.5C 40.5,20.8333 40.5,22.1667 40.5,23.5C 42.8984,23.2594 44.8984,23.9261 46.5,25.5C 44.5,25.5 42.5,25.5 40.5,25.5C 39.6814,23.2278 39.0147,20.8945 38.5,18.5 Z"/></g>
<g><path style="opacity:1" fill="#fcfdfc" d="M 12.5,25.5 C 14.8333,25.5 17.1667,25.5 19.5,25.5C 20.7054,26.6857 22.0387,26.6857 23.5,25.5C 27.8333,25.5 32.1667,25.5 36.5,25.5C 38.1388,25.9258 39.4721,25.9258 40.5,25.5C 42.5,25.5 44.5,25.5 46.5,25.5C 47.1667,25.5 47.5,25.8333 47.5,26.5C 47.5,33.8333 47.5,41.1667 47.5,48.5C 47.5,49.1667 47.5,49.8333 47.5,50.5C 46.4664,51.6871 45.133,52.5204 43.5,53C 34.1667,53.6667 24.8333,53.6667 15.5,53C 14.9341,52.0053 14.2674,51.172 13.5,50.5C 12.5328,42.5856 12.1995,34.5856 12.5,26.5C 12.5,26.1667 12.5,25.8333 12.5,25.5 Z"/></g>
<g><path style="opacity:1" fill="#c5d9fb" d="M 12.5,26.5 C 12.1995,34.5856 12.5328,42.5856 13.5,50.5C 12.176,46.893 11.5093,42.893 11.5,38.5C 11.5011,34.3188 11.8344,30.3188 12.5,26.5 Z"/></g>
<g><path style="opacity:1" fill="#586fc0" d="M 47.5,26.5 C 48.2216,26.9175 48.7216,27.5842 49,28.5C 49.6667,34.8333 49.6667,41.1667 49,47.5C 48.6174,48.056 48.1174,48.3893 47.5,48.5C 47.5,41.1667 47.5,33.8333 47.5,26.5 Z"/></g>
<g><path style="opacity:1" fill="#205fe2" d="M 12.5,25.5 C 12.5,25.8333 12.5,26.1667 12.5,26.5C 11.8344,30.3188 11.5011,34.3188 11.5,38.5C 11.5093,42.893 12.176,46.893 13.5,50.5C 13.4326,51.9587 13.7659,53.2921 14.5,54.5C 13.5,54.5 12.5,54.5 11.5,54.5C 11.5,55.5 11.5,56.5 11.5,57.5C 7.81408,57.13 6.81408,58.4633 8.5,61.5C 5.5,61.5 2.5,61.5 -0.5,61.5C -0.5,50.8333 -0.5,40.1667 -0.5,29.5C 0.26791,28.7375 0.76791,27.7375 1,26.5C 2.41798,32.089 3.41798,37.7557 4,43.5C 7.04473,45.7193 8.21139,48.7193 7.5,52.5C 8.5,52.5 9.5,52.5 10.5,52.5C 9.86227,43.1045 10.5289,34.1045 12.5,25.5 Z"/></g>
<g><path style="opacity:1" fill="#4b6fba" d="M 13.5,50.5 C 14.2674,51.172 14.9341,52.0053 15.5,53C 24.8333,53.6667 34.1667,53.6667 43.5,53C 45.133,52.5204 46.4664,51.6871 47.5,50.5C 47.4729,52.1993 46.8062,53.5326 45.5,54.5C 35.4478,54.2162 25.4478,54.5496 15.5,55.5C 15.5,54.8333 15.1667,54.5 14.5,54.5C 13.7659,53.2921 13.4326,51.9587 13.5,50.5 Z"/></g>
<g><path style="opacity:1" fill="#1853ca" d="M 45.5,54.5 C 44.7375,55.2679 43.7375,55.7679 42.5,56C 33.3238,56.824 24.3238,56.6573 15.5,55.5C 25.4478,54.5496 35.4478,54.2162 45.5,54.5 Z"/></g>
</svg>
