<svg xmlns="http://www.w3.org/2000/svg" viewBox="0 0 77.672 83"><defs><style>.a{fill:#101820;}.b{fill:#72bf44;}</style></defs><path class="a" d="M9.457,184.769l-3.518-5.736v5.736H3.9V176H6.3l3.518,5.736V176h2.065v8.769Z" transform="translate(-2.906 -131.135)"/><path class="a" d="M163.957,184.769l-3.518-5.736v5.736H158.4V176h2.422l3.492,5.736V176h2.065v8.769Z" transform="translate(-118.022 -131.135)"/><path class="a" d="M237.783,184.769l-3.518-5.736v5.736H232.2V176h2.422l3.492,5.736V176h2.065v8.769Z" transform="translate(-173.009 -131.135)"/><path class="a" d="M45.418,184.328a4.617,4.617,0,1,1-.051-9.228,5,5,0,0,1,3.39,1.173L47.432,177.8a2.649,2.649,0,0,0-1.963-.816,2.59,2.59,0,0,0-2.575,2.728,2.523,2.523,0,0,0,2.677,2.753,3.614,3.614,0,0,0,1.326-.229v-1.606H45.8v-1.708h3.008v4.639a7.247,7.247,0,0,1-3.39.765" transform="translate(-30.25 -130.465)"/><path class="a" d="M273.818,184.328a4.617,4.617,0,1,1-.051-9.228,5,5,0,0,1,3.39,1.173l-1.326,1.529a2.649,2.649,0,0,0-1.963-.816,2.59,2.59,0,0,0-2.575,2.728,2.523,2.523,0,0,0,2.677,2.753,3.614,3.614,0,0,0,1.326-.229v-1.606h-1.071v-1.708h3.008v4.639a7.516,7.516,0,0,1-3.416.765" transform="translate(-200.428 -130.465)"/><path class="a" d="M85.132,184.769V181.1H81.716v3.671H79.6V176h2.116v3.314h3.416V176h2.116v8.769Z" transform="translate(-59.309 -131.135)"/><path class="a" d="M116.7,184.769V176h5.914v1.81h-3.849v1.631H121.9v1.708h-3.135v1.81h4.053v1.81Z" transform="translate(-86.952 -131.135)"/><path class="a" d="M199.61,184.769l-.688-1.733h-3.39l-.637,1.733H192.6L196.271,176h2.065l3.645,8.769Zm-2.345-6.424-1.122,3.008h2.192Z" transform="translate(-143.504 -131.135)"/><rect class="a" width="0.663" height="6.5" transform="translate(0.969 60.007)"/><path class="a" d="M28.588,240.906h.025V235.4h.663v6.475h-.816l-3.8-5.583h0v5.583H24V235.4h.816Z" transform="translate(-17.882 -175.393)"/><path class="a" d="M62.2,235.4h2.167a3.242,3.242,0,1,1,0,6.475H62.2Zm.663,5.889h1.326a2.662,2.662,0,1,0,0-5.3h-1.3v5.3Z" transform="translate(-46.344 -175.393)"/><path class="a" d="M100.1,239.379V235.3h.663v4c0,1.045.459,2.065,1.759,2.065,1.326,0,1.759-1.02,1.759-2.065v-4h.663v4.079a2.426,2.426,0,1,1-4.843,0" transform="translate(-74.583 -175.319)"/><path class="a" d="M138.543,235.849a1.6,1.6,0,0,0-1.351-.663,1.271,1.271,0,0,0-1.377,1.224c0,.816.688,1.045,1.4,1.275.918.306,1.937.586,1.937,1.886a1.913,1.913,0,0,1-2.116,1.861,2.5,2.5,0,0,1-2.039-.969l.561-.433a1.727,1.727,0,0,0,1.479.816,1.339,1.339,0,0,0,1.428-1.249c0-.918-.765-1.147-1.58-1.4-.867-.255-1.733-.637-1.733-1.81a1.881,1.881,0,0,1,2.065-1.784,2.232,2.232,0,0,1,1.835.79Z" transform="translate(-100.587 -174.797)"/><path class="a" d="M166.83,241.875h-.663v-5.889H164V235.4h5v.586H166.83Z" transform="translate(-122.194 -175.393)"/><path class="a" d="M198.863,241.8H198.2v-6.5h1.912c1.275,0,2.218.459,2.218,1.733a1.67,1.67,0,0,1-1.657,1.657l1.886,3.084h-.816l-1.784-3.033h-1.1Zm0-3.594h1.147c1.045,0,1.657-.382,1.657-1.147,0-.841-.663-1.173-1.631-1.173h-1.173Z" transform="translate(-147.676 -175.319)"/><rect class="a" width="0.663" height="6.5" transform="translate(58.783 60.007)"/><path class="a" d="M248.414,241.8H247.7l2.8-6.5h.637l2.779,6.5h-.739l-.714-1.708H249.1Zm.943-2.294h2.855l-1.428-3.441Z" transform="translate(-184.558 -175.319)"/><path class="a" d="M287.263,241.289H290.3v.586h-3.7V235.4h.663Z" transform="translate(-213.542 -175.393)"/><path class="a" d="M30.513,44.2,11.191,18.4V44.2H3.9V6.7h7.647l19.2,25.619V28.138h7.291V44.2Z" transform="translate(-2.906 -4.992)"/><path class="a" d="M174.356,44.2,161.1,26.507l5.914-4.257,7.7,10.248V6.7H182V44.2Z" transform="translate(-120.033 -4.992)"/><path class="b" d="M109.2,19.348V4.181a4.176,4.176,0,0,1,7.342-2.728l9.483,12.669-5.914,4.257-3.594-4.818v5.761H109.2Z" transform="translate(-81.363)"/><rect class="a" width="7.291" height="7.316" transform="translate(69.439 1.81)"/><rect class="a" width="7.291" height="26.18" transform="translate(69.439 13.052)"/><path class="b" d="M0,290.24l1.326-.1a2.707,2.707,0,0,0,.433,1.3,2.4,2.4,0,0,0,1.071.816,4.1,4.1,0,0,0,1.606.306,3.943,3.943,0,0,0,1.4-.229,2.106,2.106,0,0,0,.918-.637,1.51,1.51,0,0,0,.306-.892,1.467,1.467,0,0,0-.28-.867,2.026,2.026,0,0,0-.943-.612c-.28-.1-.918-.28-1.861-.51a9.941,9.941,0,0,1-2.039-.663,2.824,2.824,0,0,1-1.122-.969,2.271,2.271,0,0,1-.357-1.3A2.6,2.6,0,0,1,.918,284.4a2.748,2.748,0,0,1,1.326-1.045A5.242,5.242,0,0,1,4.181,283a5.146,5.146,0,0,1,2.065.382,2.956,2.956,0,0,1,1.886,2.753l-1.326.1a2.087,2.087,0,0,0-.739-1.5,2.865,2.865,0,0,0-1.835-.51,2.94,2.94,0,0,0-1.835.459A1.415,1.415,0,0,0,1.81,285.8a1.2,1.2,0,0,0,.408.943,5.482,5.482,0,0,0,2.09.739,15.091,15.091,0,0,1,2.32.663,3.087,3.087,0,0,1,1.351,1.071,2.824,2.824,0,0,1-.051,3.084,3.215,3.215,0,0,1-1.377,1.147,4.78,4.78,0,0,1-2.039.408,6.034,6.034,0,0,1-2.4-.408,3.3,3.3,0,0,1-1.5-1.249A3.705,3.705,0,0,1,0,290.24" transform="translate(0 -210.859)"/><rect class="b" width="1.402" height="10.528" transform="translate(10.222 72.243)"/><path class="b" d="M54,293.928V283.4h1.428l5.506,8.259V283.4h1.351v10.528H60.857l-5.532-8.285v8.285Z" transform="translate(-40.235 -211.157)"/><path class="b" d="M100.828,289.71l1.4.357a4.649,4.649,0,0,1-1.58,2.626,4.275,4.275,0,0,1-2.779.892,5.1,5.1,0,0,1-2.779-.688,4.316,4.316,0,0,1-1.631-2.014,6.925,6.925,0,0,1-.561-2.83,5.972,5.972,0,0,1,.637-2.855,4.34,4.34,0,0,1,1.784-1.861,5.115,5.115,0,0,1,2.549-.637,4.317,4.317,0,0,1,2.651.816,4.22,4.22,0,0,1,1.5,2.269l-1.377.331a3.269,3.269,0,0,0-1.071-1.682,2.781,2.781,0,0,0-1.759-.535,3.5,3.5,0,0,0-2.039.586,3.205,3.205,0,0,0-1.147,1.555,5.96,5.96,0,0,0-.331,2.014,6.556,6.556,0,0,0,.382,2.345,2.889,2.889,0,0,0,1.224,1.5,3.417,3.417,0,0,0,1.784.484,3.116,3.116,0,0,0,1.988-.663,3.366,3.366,0,0,0,1.147-2.014" transform="translate(-69.219 -210.636)"/><path class="b" d="M135.1,293.928V283.4h7.6v1.249H136.5v3.212h5.812v1.224H136.5v3.594h6.449v1.249Z" transform="translate(-100.661 -211.157)"/><path class="b" d="M192.875,293.853h-1.3V285.62a6.342,6.342,0,0,1-1.224.892,9.238,9.238,0,0,1-1.351.663v-1.249a7.515,7.515,0,0,0,1.886-1.224,4.961,4.961,0,0,0,1.147-1.4h.841v10.553Z" transform="translate(-140.821 -211.083)"/><path class="b" d="M216.353,291.332l1.249-.1a2.147,2.147,0,0,0,.612,1.275,1.731,1.731,0,0,0,1.147.382,2,2,0,0,0,1.045-.28,2.276,2.276,0,0,0,.739-.739,3.944,3.944,0,0,0,.484-1.224,6.553,6.553,0,0,0,.2-1.58v-.255a2.882,2.882,0,0,1-1.071.994,3.03,3.03,0,0,1-3.671-.561,3.414,3.414,0,0,1-.892-2.5,3.485,3.485,0,0,1,.943-2.575,3.134,3.134,0,0,1,2.371-.969,3.338,3.338,0,0,1,1.886.561,3.5,3.5,0,0,1,1.3,1.58,7.533,7.533,0,0,1,.433,2.957,9.848,9.848,0,0,1-.433,3.212,3.592,3.592,0,0,1-1.3,1.81,3.445,3.445,0,0,1-2.039.612,2.925,2.925,0,0,1-2.014-.688,2.616,2.616,0,0,1-.994-1.912m5.277-4.639a2.569,2.569,0,0,0-.586-1.759,1.851,1.851,0,0,0-1.428-.663,1.929,1.929,0,0,0-1.5.714,2.557,2.557,0,0,0-.637,1.835,2.232,2.232,0,0,0,.612,1.631,2.039,2.039,0,0,0,1.5.637,1.9,1.9,0,0,0,1.479-.637,2.559,2.559,0,0,0,.561-1.759" transform="translate(-161.088 -211.008)"/><path class="b" d="M247.253,291.332l1.249-.1a2.147,2.147,0,0,0,.612,1.275,1.731,1.731,0,0,0,1.147.382,2,2,0,0,0,1.045-.28,2.276,2.276,0,0,0,.739-.739,3.944,3.944,0,0,0,.484-1.224,6.551,6.551,0,0,0,.2-1.58v-.255a2.882,2.882,0,0,1-1.071.994,3.03,3.03,0,0,1-3.671-.561,3.414,3.414,0,0,1-.892-2.5,3.485,3.485,0,0,1,.943-2.575,3.134,3.134,0,0,1,2.371-.969,3.338,3.338,0,0,1,1.886.561,3.5,3.5,0,0,1,1.3,1.58,7.533,7.533,0,0,1,.433,2.957,9.848,9.848,0,0,1-.433,3.212,3.592,3.592,0,0,1-1.3,1.81,3.445,3.445,0,0,1-2.039.612,2.925,2.925,0,0,1-2.014-.688,2.616,2.616,0,0,1-.994-1.912m5.277-4.639a2.569,2.569,0,0,0-.586-1.759,1.851,1.851,0,0,0-1.428-.663,1.929,1.929,0,0,0-1.5.714,2.557,2.557,0,0,0-.637,1.835,2.232,2.232,0,0,0,.612,1.631,2.039,2.039,0,0,0,1.5.637,1.9,1.9,0,0,0,1.479-.637,2.559,2.559,0,0,0,.561-1.759" transform="translate(-184.111 -211.008)"/><path class="b" d="M280.763,294v-2.524H276.2v-1.173l4.792-6.806h1.045v6.806h1.428v1.173h-1.428V294Zm0-3.722v-4.741l-3.288,4.741Z" transform="translate(-205.793 -211.232)"/></svg>