<?xml version="1.0" standalone="no"?>
<!DOCTYPE svg PUBLIC "-//W3C//DTD SVG 20010904//EN"
 "http://www.w3.org/TR/2001/REC-SVG-20010904/DTD/svg10.dtd">
<svg version="1.0" xmlns="http://www.w3.org/2000/svg"
 width="212.000000pt" height="212.000000pt" viewBox="0 0 212.000000 212.000000"
 preserveAspectRatio="xMidYMid meet">

<g transform="translate(0.000000,212.000000) scale(0.100000,-0.100000)"
fill="#000000" stroke="none">
<path d="M385 1961 c-87 -22 -165 -86 -206 -169 l-24 -47 0 -675 0 -675 24
-47 c30 -61 88 -119 149 -149 l47 -24 675 0 675 0 49 24 c63 31 116 84 147
147 l24 49 0 675 0 675 -24 49 c-31 63 -84 116 -147 147 l-49 24 -655 2 c-360
1 -668 -2 -685 -6z m728 -462 c80 -22 156 -121 157 -201 l0 -38 72 0 c60 0 76
-4 95 -22 23 -21 23 -23 23 -263 0 -235 -1 -243 -23 -276 -44 -67 -58 -69
-387 -69 -425 0 -404 -18 -408 337 -3 242 -3 246 19 269 20 21 32 24 96 24
l73 0 0 38 c1 105 108 210 215 212 17 0 47 -5 68 -11z"/>
<path d="M980 1422 c-46 -23 -80 -75 -80 -123 l0 -39 149 0 c163 0 163 0 150
59 -16 70 -79 121 -149 121 -19 0 -51 -8 -70 -18z"/>
</g>
</svg>
